<svg width="40" height="27" viewBox="0 0 40 27" fill="none" xmlns="http://www.w3.org/2000/svg">
<path d="M38.4673 2.87303V23.8263C38.4673 23.8263 26.5701 20.63 19.8224 22.5833M38.4673 2.87303C38.4673 2.87303 25.5047 -0.14553 19.8224 1.80761M38.4673 2.87303L39 3.93858V25.7797C39 25.7797 26.5701 22.4059 19.8224 24.3591C13.6075 22.0507 1 25.7797 1 25.7797V4.64886L2.06542 2.87303M2.06542 2.87303V23.8263C2.06542 23.8263 13.6075 20.2749 19.8224 22.5833M2.06542 2.87303C2.06542 2.87303 13.4299 -0.500746 19.8224 1.80761M19.8224 22.5833V1.80761" stroke="white"/>
<path d="M23.374 4.46606C27.9819 3.95464 30.6155 4.40182 35.4488 5.53154M23.374 10.5034C27.9819 9.99194 30.6155 10.4391 35.4488 11.5688M23.374 6.5969C27.9819 6.08548 30.6155 6.53266 35.4488 7.66238M23.374 8.55018C27.9819 8.03875 30.6155 8.48593 35.4488 9.61565M23.374 12.6342C27.9819 12.1228 30.6155 12.57 35.4488 13.6997M23.374 14.9427C27.9819 14.4312 30.6155 14.8784 35.4488 16.0081M23.374 17.2511C27.9819 16.7397 30.6155 17.1869 35.4488 18.3166" stroke="white"/>
<path d="M17.1592 4.677C12.5513 4.16558 9.91774 4.61276 5.08441 5.74247M17.1592 10.7143C12.5513 10.2029 9.91774 10.6501 5.08441 11.7798M17.1592 6.80784C12.5513 6.29642 9.91774 6.7436 5.08441 7.87332M17.1592 8.76111C12.5513 8.24969 9.91774 8.69687 5.08441 9.82659M17.1592 12.8451C12.5513 12.3337 9.91774 12.7809 5.08441 13.9106M17.1592 15.1536C12.5513 14.6422 9.91774 15.0894 5.08441 16.2191M17.1592 17.462C12.5513 16.9506 9.91774 17.3978 5.08441 18.5275" stroke="white"/>
</svg>
